<?xml version="1.0" encoding="UTF-8"?>
<!DOCTYPE svg PUBLIC "-//W3C//DTD SVG 1.1//EN" "http://www.w3.org/Graphics/SVG/1.1/DTD/svg11.dtd">
<svg xmlns="http://www.w3.org/2000/svg" version="1.1" width="1517px" height="1561px" style="shape-rendering:geometricPrecision; text-rendering:geometricPrecision; image-rendering:optimizeQuality; fill-rule:evenodd; clip-rule:evenodd" xmlns:xlink="http://www.w3.org/1999/xlink">
<g><path style="opacity:0.995" fill="#fe3e16" d="M 772.5,17.5 C 773.496,17.4142 774.329,17.7476 775,18.5C 801.25,59.9986 827.25,101.665 853,143.5C 887.093,211.078 885.426,277.745 848,343.5C 680.07,612.371 511.903,881.038 343.5,1149.5C 317.503,1108.66 291.67,1067.66 266,1026.5C 230.134,959.109 230.801,892.109 268,825.5C 436.428,556.307 604.595,286.973 772.5,17.5 Z"/></g>
<g><path style="opacity:0.995" fill="#fe3e16" d="M 980.5,349.5 C 982.451,350.716 983.951,352.382 985,354.5C 1009.08,393.668 1033.42,432.668 1058,471.5C 1094.96,539.85 1094.29,607.85 1056,675.5C 881.75,953.665 707.75,1232 534,1510.5C 509,1470.83 484,1431.17 459,1391.5C 426.993,1335.99 421.66,1277.99 443,1217.5C 447.946,1204.94 453.946,1192.94 461,1181.5C 634.428,904.307 807.595,626.973 980.5,349.5 Z"/></g>
<g><path style="opacity:0.994" fill="#fe3e16" d="M 1188.5,682.5 C 1212.89,720.266 1237.06,758.266 1261,796.5C 1297.38,856.618 1302.38,919.284 1276,984.5C 1271.51,994.151 1266.51,1003.48 1261,1012.5C 1157,1178.5 1053,1344.5 949,1510.5C 924.333,1471.17 899.667,1431.83 875,1392.5C 840.648,1333.3 836.315,1271.97 862,1208.5C 866.491,1198.85 871.491,1189.52 877,1180.5C 981.058,1014.62 1084.89,848.616 1188.5,682.5 Z"/></g>
</svg>
